<svg width="31" height="30" viewBox="0 0 31 30" fill="none" xmlns="http://www.w3.org/2000/svg">
<path d="M14.4174 0.797313C14.7582 -0.26577 16.2418 -0.265772 16.5826 0.797311L19.4613 9.77818C19.6137 10.2536 20.0507 10.5755 20.5439 10.5755H29.8595C30.9622 10.5755 31.4207 12.0059 30.5286 12.6629L22.9921 18.2134C22.5931 18.5072 22.4262 19.028 22.5786 19.5034L25.4573 28.4843C25.798 29.5474 24.5977 30.4314 23.7056 29.7744L16.1691 24.2239C15.7701 23.9301 15.2299 23.9301 14.8309 24.2239L7.29442 29.7744C6.40231 30.4314 5.20198 29.5474 5.54274 28.4843L8.42142 19.5034C8.57381 19.028 8.40687 18.5072 8.00791 18.2134L0.471411 12.6629C-0.420699 12.0059 0.0377833 10.5755 1.14049 10.5755H10.4561C10.9493 10.5755 11.3863 10.2536 11.5387 9.77818L14.4174 0.797313Z" fill="#FCDF00"/>
</svg>
