<svg width="64" height="42" viewBox="0 0 64 42" fill="none" xmlns="http://www.w3.org/2000/svg">
<path fill-rule="evenodd" clip-rule="evenodd" d="M6.41142 35.9351C6.6734 36.2779 7.00123 36.5 7.70226 36.5C13.0859 36.5 16.3168 34.9219 19.2064 33.243C19.5496 33.0436 19.8982 32.8348 20.2538 32.6217C22.8326 31.0766 25.7824 29.3093 29.7446 29.3093H34.2483C38.2253 29.3093 41.2473 31.0869 43.8916 32.6423C44.2365 32.8452 44.575 33.0443 44.9083 33.2352C47.8673 34.9296 51.097 36.5 56.2907 36.5C56.9949 36.5 57.3244 36.2768 57.587 35.9338C57.9417 35.4702 58.2912 34.5897 58.4335 33.132C58.7172 30.2277 58.0816 26.09 56.7636 21.7222C55.458 17.3953 53.5653 13.1148 51.5565 9.97112C50.5485 8.39377 49.5693 7.19429 48.6933 6.41829C47.7723 5.60257 47.2476 5.5 47.1063 5.5C44.01 5.5 42.6116 6.25044 41.2578 7.04844C41.1431 7.11607 41.0266 7.18566 40.9079 7.25657C39.3881 8.16471 37.5057 9.28947 34.2483 9.28947H29.7446C26.4873 9.28947 24.6049 8.16471 23.085 7.25657C22.9663 7.18566 22.8499 7.11607 22.7351 7.04843C21.3813 6.25044 19.983 5.5 16.8867 5.5C16.7455 5.5 16.2211 5.60243 15.3006 6.418C14.425 7.19389 13.4463 8.39326 12.439 9.97059C10.4313 13.1142 8.54001 17.3947 7.23521 21.7218C5.91815 26.0895 5.28287 30.2276 5.56593 33.1325C5.70802 34.5906 6.05713 35.4715 6.41142 35.9351ZM11.9847 2.67575C13.2861 1.52257 14.9614 0.5 16.8867 0.5C21.138 0.5 23.4135 1.6443 25.2741 2.74104C25.3868 2.80745 25.4957 2.87208 25.6014 2.93485C27.0262 3.78041 27.8841 4.28947 29.7446 4.28947H34.2483C36.1089 4.28947 36.9667 3.78041 38.3915 2.93486C38.4973 2.87208 38.6062 2.80745 38.7188 2.74104C40.5795 1.6443 42.8549 0.5 47.1063 0.5C49.0314 0.5 50.7068 1.52243 52.0085 2.67546C53.3551 3.86821 54.6211 5.48123 55.7697 7.27888C58.0741 10.8852 60.1403 15.6047 61.5504 20.2778C62.9483 24.91 63.7854 29.7723 63.4099 33.618C63.2226 35.5353 62.7095 37.4673 61.5577 38.9725C60.3135 40.5982 58.4923 41.5 56.2907 41.5C49.8609 41.5 45.7431 39.475 42.4236 37.5741C42.0544 37.3627 41.7025 37.1586 41.3648 36.9627C38.602 35.3605 36.7894 34.3093 34.2483 34.3093H29.7446C27.2437 34.3093 25.5248 35.3237 22.856 36.8985C22.4955 37.1112 22.1177 37.3342 21.7182 37.5663C18.4197 39.4827 14.3031 41.5 7.70226 41.5C5.50124 41.5 3.68124 40.5971 2.43868 38.9711C1.28842 37.466 0.776294 35.5344 0.589505 33.6175C0.214825 29.7724 1.0513 24.9105 2.44812 20.2782C3.8572 15.6053 5.92188 10.8858 8.22502 7.27941C9.37308 5.48174 10.6385 3.86861 11.9847 2.67575Z" fill="white"/>
</svg>
