<svg width="18" height="19" viewBox="0 0 18 19" fill="none" xmlns="http://www.w3.org/2000/svg">
<path fill-rule="evenodd" clip-rule="evenodd" d="M0.887384 5.52498L7.88744 0.838663C8.56069 0.387942 9.43935 0.387924 10.1126 0.838619L17.1126 5.52448C17.6671 5.89572 18 6.51911 18 7.18648L18 16.4993C18 17.6039 17.1046 18.4993 16 18.4993H11.5V13.5C11.5 12.1193 10.3807 11 9 11C7.61929 11 6.5 12.1193 6.5 13.5V18.4993H2C0.895431 18.4993 0 17.6039 0 16.4993L7.1735e-06 7.18693C7.68756e-06 6.51959 0.332848 5.89623 0.887384 5.52498Z" fill="white"/>
</svg>
