<svg width="32" height="32" viewBox="0 0 32 32" fill="none" xmlns="http://www.w3.org/2000/svg">
<path d="M31.9995 10.6667V19.5846C31.9995 19.8142 31.9543 20.0416 31.8664 20.2538C31.7785 20.466 31.6497 20.6587 31.4873 20.8211C31.325 20.9835 31.1322 21.1123 30.92 21.2002C30.7078 21.2881 30.4804 21.3333 30.2508 21.3333H15.9993C14.5857 21.3323 13.2302 20.7703 12.2306 19.7707C11.2311 18.7711 10.669 17.4156 10.668 16.002V1.74877C10.6679 1.28531 10.8518 0.840773 11.1793 0.512853C11.5068 0.184932 11.9511 0.00046718 12.4145 0L21.3329 0V10.6667L18.6659 13.3332H23.9994L26.154 11.1787C26.3164 11.0163 26.5091 10.8875 26.7213 10.7997C26.9334 10.7118 27.1607 10.6666 27.3903 10.6667H31.9995Z" fill="white"/>
<path d="M10.6667 15.9999L5.84554 11.1787C5.5176 10.8509 5.07289 10.6667 4.60919 10.6667H0V21.3334H4.60919C4.83884 21.3334 5.06623 21.2882 5.27837 21.2003C5.49051 21.1123 5.68324 20.9834 5.84554 20.821L10.6667 15.9999Z" fill="#FF5188"/>
<path d="M15.9999 21.3333L11.1787 26.1544C10.8509 26.4823 10.6667 26.927 10.6667 27.3907V31.9999H21.3334V27.3907C21.3334 26.927 21.1493 26.4823 20.8214 26.1544L15.9999 21.3333Z" fill="#FCDF00"/>
</svg>
