<svg width="31" height="28" viewBox="0 0 31 28" fill="none" xmlns="http://www.w3.org/2000/svg">
<path fill-rule="evenodd" clip-rule="evenodd" d="M5.5 2.5V2C5.5 0.895431 6.39543 0 7.5 0H23.5C24.6046 0 25.5 0.895431 25.5 2V2.5H28.5C29.8807 2.5 31 3.61929 31 5V8.38197C31 9.3289 30.465 10.1946 29.618 10.618L25.5 12.6771V14.8394C25.5 15.5571 25.1154 16.2198 24.4923 16.5758L18.5 20V24H22.5C23.0523 24 23.5 24.4477 23.5 25V27C23.5 27.5523 23.0523 28 22.5 28H8.5C7.94772 28 7.5 27.5523 7.5 27V25C7.5 24.4477 7.94772 24 8.5 24H12.5V20L6.50772 16.5758C5.88457 16.2198 5.5 15.5571 5.5 14.8394V12.6771L1.38197 10.618C0.535006 10.1946 0 9.3289 0 8.38197V5C0 3.61929 1.11929 2.5 2.5 2.5H5.5ZM5.5 5.5H3V8.07295L5.5 9.32295V5.5ZM25.5 9.32295V5.5H28V8.07295L25.5 9.32295Z" fill="#FCDF00"/>
</svg>
